<svg xmlns="http://www.w3.org/2000/svg" viewBox="0 0 64 64">
  <rect width="64" height="64" rx="14" fill="#fff8eb"/>
  <g transform="translate(34 34)">
    <rect x="-9" y="-19" width="18" height="7" rx="3" fill="#8f5405"/>
    <path d="M-15-12h30l-3 27c-.3 2.8-2.6 4.8-5.4 4.8H-6.6c-2.8 0-5.1-2-5.4-4.8Z" fill="#f3bf45" stroke="#8f5405" stroke-width="3" stroke-linejoin="round"/>
    <rect x="-11" y="-7" width="22" height="15" rx="5" fill="#ffe08a" opacity="0.95"/>
    <path d="M-4-3c3.6 1.7 6.3 4.8 7.3 8.7" fill="none" stroke="#fff8eb" stroke-width="2.8" stroke-linecap="round" opacity="0.95"/>
    <path d="M-13-12h26" fill="none" stroke="#8f5405" stroke-width="3" stroke-linecap="round"/>
  </g>
  <g transform="translate(16 40)">
    <ellipse cx="-2" cy="-9" rx="5.8" ry="4.2" fill="#ecf8ff" stroke="#2f2417" stroke-width="1.8" transform="rotate(-25)"/>
    <ellipse cx="6" cy="-9" rx="5.8" ry="4.2" fill="#ecf8ff" stroke="#2f2417" stroke-width="1.8" transform="rotate(20)"/>
    <ellipse cx="2" cy="0" rx="8.5" ry="6.8" fill="#f3bf45" stroke="#2f2417" stroke-width="2.2"/>
    <path d="M-3-4v8" fill="none" stroke="#2f2417" stroke-width="2.4" stroke-linecap="round"/>
    <path d="M2-5v10" fill="none" stroke="#2f2417" stroke-width="2.6" stroke-linecap="round"/>
    <path d="M7-4v8" fill="none" stroke="#2f2417" stroke-width="2.4" stroke-linecap="round"/>
    <circle cx="-1" cy="0" r="1.2" fill="#2f2417"/>
    <circle cx="4.5" cy="0" r="1.2" fill="#2f2417"/>
    <path d="M0 3c1.4 1.2 4.2 1.2 5.6 0" fill="none" stroke="#2f2417" stroke-width="1.8" stroke-linecap="round"/>
    <path d="M0 -8c-1.2-2.8-3.4-4.8-5.7-5.8" fill="none" stroke="#2f2417" stroke-width="1.8" stroke-linecap="round"/>
    <path d="M4 -8c1.2-2.8 3.4-4.8 5.7-5.8" fill="none" stroke="#2f2417" stroke-width="1.8" stroke-linecap="round"/>
  </g>
</svg>
